<svg width="22" height="22" viewBox="0 0 22 22" fill="none" xmlns="http://www.w3.org/2000/svg">
<g id="Help (&#229;&#184;&#174;&#229;&#138;&#169;)">
<path id="Vector" d="M11 20.1666C13.5313 20.1666 15.823 19.1406 17.4818 17.4817C19.1407 15.8229 20.1667 13.5312 20.1667 10.9999C20.1667 8.46864 19.1407 6.17697 17.4818 4.5181C15.823 2.85927 13.5313 1.83325 11 1.83325C8.46876 1.83325 6.17709 2.85927 4.51823 4.5181C2.85939 6.17697 1.83337 8.46864 1.83337 10.9999C1.83337 13.5312 2.85939 15.8229 4.51823 17.4817C6.17709 19.1406 8.46876 20.1666 11 20.1666Z" stroke="#00A69D" stroke-width="2" stroke-linejoin="round"/>
<path id="Vector_2" d="M11 13.1197V11.2864C12.5188 11.2864 13.75 10.0552 13.75 8.53638C13.75 7.0176 12.5188 5.78638 11 5.78638C9.48122 5.78638 8.25 7.0176 8.25 8.53638" stroke="#00A69D" stroke-width="2" stroke-linecap="round" stroke-linejoin="round"/>
<path id="Vector_3" fill-rule="evenodd" clip-rule="evenodd" d="M11 17.2448C11.6328 17.2448 12.1458 16.7318 12.1458 16.099C12.1458 15.4661 11.6328 14.9531 11 14.9531C10.3671 14.9531 9.85413 15.4661 9.85413 16.099C9.85413 16.7318 10.3671 17.2448 11 17.2448Z" fill="#00A69D"/>
</g>
</svg>
