<svg width="22" height="22" viewBox="0 0 22 22" fill="none" xmlns="http://www.w3.org/2000/svg">
<g id="Info (&#228;&#191;&#161;&#230;&#129;&#175;)">
<path id="Vector" d="M11 20.1666C13.5313 20.1666 15.823 19.1406 17.4818 17.4817C19.1407 15.8229 20.1667 13.5312 20.1667 10.9999C20.1667 8.46864 19.1407 6.17697 17.4818 4.5181C15.823 2.85927 13.5313 1.83325 11 1.83325C8.46876 1.83325 6.17709 2.85927 4.51823 4.5181C2.85939 6.17697 1.83337 8.46864 1.83337 10.9999C1.83337 13.5312 2.85939 15.8229 4.51823 17.4817C6.17709 19.1406 8.46876 20.1666 11 20.1666Z" stroke="#00A69D" stroke-width="2" stroke-linejoin="round"/>
<path id="Vector_2" fill-rule="evenodd" clip-rule="evenodd" d="M11 5.04175C11.6328 5.04175 12.1458 5.55476 12.1458 6.18758C12.1458 6.8204 11.6328 7.33341 11 7.33341C10.3671 7.33341 9.85413 6.8204 9.85413 6.18758C9.85413 5.55476 10.3671 5.04175 11 5.04175Z" fill="#00A69D"/>
<path id="Vector_3" d="M11.2292 15.5834V9.16675H10.7708H10.3125" stroke="#00A69D" stroke-width="2" stroke-linecap="round" stroke-linejoin="round"/>
<path id="Vector_4" d="M9.625 15.5833H12.8333" stroke="#00A69D" stroke-width="2" stroke-linecap="round" stroke-linejoin="round"/>
</g>
</svg>
