<svg width="22" height="22" viewBox="0 0 22 22" fill="none" xmlns="http://www.w3.org/2000/svg">
<g id="Setting-two (&#232;&#174;&#190;&#231;&#189;&#174;)">
<path id="Vector" d="M8.38012 19.7869C6.84419 19.3296 5.47703 18.4806 4.39448 17.3557C4.79833 16.8771 5.04171 16.2587 5.04171 15.5834C5.04171 14.0646 3.81049 12.8334 2.29171 12.8334C2.19983 12.8334 2.10901 12.8379 2.01945 12.8467C1.89744 12.2502 1.83337 11.6327 1.83337 11.0001C1.83337 10.0419 1.98039 9.11801 2.25311 8.24979C2.26595 8.24998 2.27882 8.25007 2.29171 8.25007C3.81049 8.25007 5.04171 7.01885 5.04171 5.50007C5.04171 5.06406 4.94023 4.65179 4.75965 4.28549C5.81973 3.29979 7.1136 2.56211 8.54892 2.16479C9.00372 3.05628 9.93061 3.66675 11 3.66675C12.0695 3.66675 12.9964 3.05628 13.4512 2.16479C14.8865 2.56211 16.1804 3.29979 17.2404 4.28549C17.0598 4.65179 16.9584 5.06406 16.9584 5.50007C16.9584 7.01885 18.1896 8.25007 19.7084 8.25007C19.7213 8.25007 19.7341 8.24998 19.747 8.24979C20.0197 9.11801 20.1667 10.0419 20.1667 11.0001C20.1667 11.6327 20.1026 12.2502 19.9806 12.8467C19.8911 12.8379 19.8003 12.8334 19.7084 12.8334C18.1896 12.8334 16.9584 14.0646 16.9584 15.5834C16.9584 16.2587 17.2017 16.8771 17.6056 17.3557C16.523 18.4806 15.1559 19.3296 13.62 19.7869C13.2655 18.678 12.2265 17.8751 11 17.8751C9.77354 17.8751 8.73459 18.678 8.38012 19.7869Z" stroke="#00A69D" stroke-width="2" stroke-linejoin="round"/>
<path id="Vector_2" d="M11 14.2084C12.7719 14.2084 14.2083 12.772 14.2083 11.0001C14.2083 9.22816 12.7719 7.79175 11 7.79175C9.22804 7.79175 7.79163 9.22816 7.79163 11.0001C7.79163 12.772 9.22804 14.2084 11 14.2084Z" stroke="#00A69D" stroke-width="2" stroke-linejoin="round"/>
</g>
</svg>
