<svg width="22" height="22" viewBox="0 0 22 22" fill="none" xmlns="http://www.w3.org/2000/svg">
<g id="Wallet-one (&#233;&#146;&#177;&#229;&#140;&#133;)">
<path id="Vector" d="M18.7916 5.95825H3.20829C2.70203 5.95825 2.29163 6.36866 2.29163 6.87492V16.9583C2.29163 17.4645 2.70203 17.8749 3.20829 17.8749H18.7916C19.2979 17.8749 19.7083 17.4645 19.7083 16.9583V6.87492C19.7083 6.36866 19.2979 5.95825 18.7916 5.95825Z" stroke="#00A69D" stroke-width="2" stroke-linecap="round" stroke-linejoin="round"/>
<path id="Vector_2" d="M19.7084 9.16675H11.4584V14.2084H19.7084V9.16675Z" stroke="#00A69D" stroke-width="2" stroke-linecap="round" stroke-linejoin="round"/>
<path id="Vector_3" d="M19.7084 8.25V15.125" stroke="#00A69D" stroke-width="2" stroke-linecap="round" stroke-linejoin="round"/>
<path id="Vector_4" d="M14.6666 5.95825C14.6666 3.66659 13.0625 3.20825 12.375 3.20825C10.8472 3.20825 7.37913 3.20825 5.72913 3.20825C4.07913 3.20825 3.66663 4.52168 3.66663 5.1784V5.95825" stroke="#00A69D" stroke-width="2" stroke-linecap="round" stroke-linejoin="round"/>
<path id="Vector_5" d="M15.3541 12.375C15.7338 12.375 16.0416 12.0672 16.0416 11.6875C16.0416 11.3078 15.7338 11 15.3541 11C14.9744 11 14.6666 11.3078 14.6666 11.6875C14.6666 12.0672 14.9744 12.375 15.3541 12.375Z" fill="#00A69D"/>
</g>
</svg>
